<svg xmlns="http://www.w3.org/2000/svg" viewBox="0 0 1024 1024" width="34" height="34">
  <path fill="white" d="M512 0C229.2 0 0 229.2 0 512c0 226.8 147.1 419.1 351.1 486.4 25.7 4.7 35.1-11.1 35.1-24.7 0-12.2-.4-52.6-.7-95.4-142.8 31-172.9-68.8-172.9-68.8-23.4-59.3-57.3-75.1-57.3-75.1-46.9-32 3.6-31.3 3.6-31.3 51.8 3.6 79.1 53.2 79.1 53.2 46.1 78.9 120.9 56.1 150.5 42.9 4.7-33.4 18-56.1 32.7-69-114-13-233.9-57-233.9-253.8 0-56.1 20-101.9 52.8-137.8-5.2-12.9-22.9-65.1 5.1-135.7 0 0 43.1-13.8 141.2 52.6 40.9-11.4 84.8-17.1 128.4-17.3 43.5.2 87.4 5.9 128.4 17.3 98.1-66.5 141.1-52.6 141.1-52.6 28.1 70.6 10.3 122.8 5.1 135.7 32.8 35.9 52.7 81.7 52.7 137.8 0 197.2-120 240.7-234.3 253.3 18.5 16 34.9 47.6 34.9 96 0 69.3-.6 125.2-.6 142.3 0 13.8 9.3 29.7 35.3 24.7C876.9 931.1 1024 738.7 1024 512 1024 229.2 794.8 0 512 0z"/>
</svg>
