<svg xmlns="http://www.w3.org/2000/svg" viewBox="0 0 448 512" width="34" height="34">
  <path fill="white" d="M224.1 141c-63.6 0-115.1 51.5-115.1 115.1s51.5 115.1 115.1 115.1 115.1-51.5 115.1-115.1-51.5-115.1-115.1-115.1zm0 190.7c-41.8 0-75.7-33.9-75.7-75.7s33.9-75.7 75.7-75.7 75.7 33.9 75.7 75.7-33.9 75.7-75.7 75.7zm146.4-194.3c0 14.9-12 27-27 27s-27-12-27-27 12-27 27-27 27 12 27 27zm76.1 27.2c-.2-48.9-13.2-92.2-48.2-127.2S371.9 7.7 323 7.5C276.3 7.3 171.7 7.3 125 7.5 76.1 7.7 32.9 20.6-2.1 55.6S-40.7 179.7-40.9 228.6c-.2 46.7-.2 151.3 0 198 1.4 48.9 14.4 92.2 49.4 127.2s78.3 48.2 127.2 49.4c46.7.2 151.3.2 198 0 48.9-1.4 92.2-14.4 127.2-49.4s48.2-78.3 49.4-127.2c.2-46.7.2-151.3 0-198zm-48.8 240c-7.8 19.6-22.9 34.7-42.5 42.5-29.5 11.7-99.5 9-132.2 9s-102.7 2.6-132.2-9c-19.6-7.8-34.7-22.9-42.5-42.5-11.7-29.5-9-99.5-9-132.2s-2.6-102.7 9-132.2c7.8-19.6 22.9-34.7 42.5-42.5 29.5-11.7 99.5-9 132.2-9s102.7-2.6 132.2 9c19.6 7.8 34.7 22.9 42.5 42.5 11.7 29.5 9 99.5 9 132.2s2.6 102.7-9 132.2z"/>
</svg>
