<svg xmlns="http://www.w3.org/2000/svg" viewBox="0 0 34 34" width="34" height="34">
  <g>
    <rect width="34" height="34" fill="none"/>
    <path fill="white" d="M29,0H5C2.24,0,0,2.24,0,5v24c0,2.76,2.24,5,5,5h24c2.76,0,5-2.24,5-5V5C34,2.24,31.76,0,29,0z M10.06,27.09H6.23V13.59h3.83V27.09z M8.14,11.61c-1.22,0-2.21-0.99-2.21-2.21c0-1.22,0.99-2.21,2.21-2.21c1.22,0,2.21,0.99,2.21,2.21C10.35,10.62,9.36,11.61,8.14,11.61z M27.09,27.09h-3.83v-6.59c0-1.57-0.03-3.58-2.18-3.58c-2.18,0-2.52,1.7-2.52,3.45v6.72h-3.83V13.59h3.68v1.83h0.05c0.51-0.96,1.75-1.97,3.6-1.97c3.85,0,4.56,2.54,4.56,5.85V27.09z"/>
  </g>
</svg>
